<svg xmlns="http://www.w3.org/2000/svg" fill="none" width="10" height="36" viewBox="0 0 10 36"><path d="M7.098.5c.25.58.47 1.08.66 1.6a38.18 38.18 0 0 1 2.09 16.14 16.41 16.41 0 0 1-2.43 7.58 50.492 50.492 0 0 0-2.52 4.63 5 5 0 0 0-.52 3.36 5.57 5.57 0 0 1-.19 1.87h-.56a35.56 35.56 0 0 1-3.23-18A33.57 33.57 0 0 1 7.098.5zm-1.71 13.85c-.54 2.68-1.3 5.34-1.57 8s-.06 5.48-.06 8.17c.67-1.14 1.44-2.29 2.07-3.51 1.56-3 3.21-6 3.34-9.54a41 41 0 0 0-1.35-12.08c-.27-1-.61-1.95-1-3-5.32 6.02-7.22 20.9-3.64 28.72-.18-5.8-.29-11.47 2.21-16.76z" fill="#000"/><path d="M5.389 14.35c-2.5 5.29-2.4 11-2.21 16.76-3.58-7.82-1.68-22.7 3.69-28.73.34 1.06.68 2 1 3a41 41 0 0 1 1.3 12.14c-.17 3.55-1.78 6.53-3.34 9.54-.63 1.22-1.4 2.37-2.07 3.51 0-2.69-.21-5.46.06-8.17s1.03-5.4 1.57-8.05z" fill="#C2D1A2"/></svg>