<svg xmlns="http://www.w3.org/2000/svg" fill="none" width="57" height="43" viewBox="0 0 57 43"><path d="M54.168 30.52a29.062 29.062 0 0 1-.67-3.2 10.62 10.62 0 0 0-5.5-8.41 32.41 32.41 0 0 0-14.12-4.37 117.202 117.202 0 0 1-11.86-1.3c-3.87-.75-7.66-2.07-10.65-4.88a12.66 12.66 0 0 1-4.13-7.8c.224.152.428.33.61.53a6.8 6.8 0 0 0 5.87 2.78 81.88 81.88 0 0 0 9.38-.7c4.64-.6 9.29-1.12 13.95-.45a21.16 21.16 0 0 1 10.45 4.8 21 21 0 0 1 6.5 9.27A60.265 60.265 0 0 1 56.728 28c.17 1.05-.61 1.83-2.56 2.52zm.65-2.21h.49a4.656 4.656 0 0 0 0-1.23 81.79 81.79 0 0 0-2.18-9.08c-1.55-4.37-3.93-8.24-8.21-10.59a27.31 27.31 0 0 0-13.36-3.36c-4.49 0-9 .52-13.46.83-2.83.19-5.66.48-8.34-.81 0 0-.1.06-.24.14A15.69 15.69 0 0 0 14.068 9a21.9 21.9 0 0 0 8.33 2.63c5.82.93 11.68 1.67 17.48 2.71a20.66 20.66 0 0 1 11.53 5.79c1.82 1.88 3.24 4 3.18 6.85.034.45.111.895.23 1.33z" fill="#000"/><path d="M54.82 28.31a7.065 7.065 0 0 1-.23-1.31c.06-2.81-1.36-5-3.18-6.85a20.66 20.66 0 0 0-11.53-5.79c-5.8-1-11.66-1.78-17.48-2.71A21.901 21.901 0 0 1 14.07 9a15.69 15.69 0 0 1-4.55-4.79c.14-.08.21-.16.24-.14 2.68 1.29 5.51 1 8.34.81 4.48-.31 9-.83 13.46-.83a27.31 27.31 0 0 1 13.36 3.34c4.28 2.35 6.66 6.22 8.21 10.61a81.764 81.764 0 0 1 2.23 9.11 4.69 4.69 0 0 1 0 1.23l-.54-.03zM28.54 6.56c.157.041.317.068.48.08 2-.06 4-.21 5.94-.18a18.84 18.84 0 0 1 9 2.53 16.36 16.36 0 0 1 5.23 5.11c1.48 2.06 3.34 3.91 3.79 6.56 0 .06.17.08.54.24a7.348 7.348 0 0 0-.5-2.26 109.67 109.67 0 0 0-4-6 14.398 14.398 0 0 0-4.82-4.33 20.16 20.16 0 0 0-15.66-1.75z" fill="#C2D1A2"/><path d="M28.54 6.56A20.16 20.16 0 0 1 44.2 8.31a14.4 14.4 0 0 1 4.73 4.32c1.43 1.94 2.78 4 4 6a7.4 7.4 0 0 1 .5 2.26c-.37-.16-.53-.18-.54-.24-.45-2.65-2.31-4.5-3.79-6.56A16.361 16.361 0 0 0 43.92 9a18.84 18.84 0 0 0-9-2.53c-2 0-4 .12-5.94.18a2.666 2.666 0 0 1-.44-.09z" fill="#000"/></svg>