<svg xmlns="http://www.w3.org/2000/svg" fill="none" width="26" height="55" viewBox="0 0 26 55"><path d="M3.47 55c-2-.81-2-.85-2-3.22.125-2-.112-4.005-.7-5.92a11.52 11.52 0 0 1-.43-4c.08-6.87 3.86-12 8.31-16.7 1.64-1.73 3.37-3.36 5.15-4.94C18.2 16.25 22.19 12 24 6.23c.47-1.49.65-3.06 1-4.59.06-.3.16-.6.24-.9h.3c.08 1 .22 1.92.22 2.87.06 4.911-.42 9.814-1.43 14.62-.82 3.79-2 7.48-4.73 10.39-1.66 1.79-3.58 3.35-5.39 5-2.37 2.19-4.81 4.32-7.1 6.6-2 2-2.85 4.63-3.69 7.21a7.49 7.49 0 0 0 .16 2.92c.14 1.32.35 2.63.51 3.95a2.11 2.11 0 0 1-.16.67zM3 54.12l.4-.25c-.1-.94-.24-1.87-.31-2.81a14.93 14.93 0 0 1-.15-3.76 17.1 17.1 0 0 1 5.36-9.55c2.73-2.47 5.51-4.89 8.29-7.29a18.87 18.87 0 0 0 5.19-6.63c2.65-6.09 3-12.57 3.36-19.24-.15.2-.21.24-.23.3-1.46 5.38-4.65 9.65-8.61 13.41-2.23 2.11-4.57 4.1-6.72 6.29-4.24 4.3-7.95 9-8.58 15.3a12.78 12.78 0 0 0-.12 3.26c.56 3.27 1.46 6.49 1.28 9.86-.01.36.54.74.84 1.11z" fill="#000"/><path d="M2.999 54.12c-.29-.37-.84-.75-.83-1.11.18-3.37-.72-6.59-1.28-9.86a12.78 12.78 0 0 1 .11-3.26c.63-6.35 4.34-11 8.58-15.3 2.15-2.19 4.49-4.18 6.72-6.29 4-3.76 7.15-8 8.61-13.41 0-.06.08-.1.23-.3-.31 6.67-.71 13.15-3.36 19.24a18.869 18.869 0 0 1-5.19 6.63c-2.78 2.4-5.56 4.82-8.29 7.29a17.1 17.1 0 0 0-5.37 9.55 14.93 14.93 0 0 0 .15 3.76c.07.94.21 1.87.31 2.81zm-.86-6.92.45.09c.13-8.57 4.46-15 10.22-20.76a2.001 2.001 0 0 0-1 .51 51.259 51.259 0 0 0-3.66 3.71A25.65 25.65 0 0 0 1.999 46c.01.404.057.805.14 1.2z" fill="#c2d1a2"/><path d="M2.14 47.2A6.67 6.67 0 0 1 2 46a25.65 25.65 0 0 1 6.18-15.25A51.238 51.238 0 0 1 11.84 27a2 2 0 0 1 1-.51C7.05 32.28 2.72 38.72 2.59 47.29z" fill="#000"/></svg>