<svg xmlns="http://www.w3.org/2000/svg" fill="none" width="44" height="24" viewBox="0 0 44 24"><path d="M.148 21.81c.89-.56 1.51-1 2.19-1.36a45.637 45.637 0 0 0 10.7-8c2.67-2.45 5.24-5.03 7.96-7.45a16.29 16.29 0 0 1 9.83-4.5 13 13 0 0 1 6.17 1.09c1.6.66 3.23 1.28 4.82 2 .72.31 1.76.69 1.49 1.54a8.54 8.54 0 0 1-1.77 2.5c0 .06-.5-.08-.65-.24a4.164 4.164 0 0 1-.49-.88c-.79-1.57-1.07-1.71-2.67-.9a24.381 24.381 0 0 0-6.73 5.39 40.548 40.548 0 0 1-15.12 10.7 22.18 22.18 0 0 1-12.73 1.11 26.268 26.268 0 0 1-3-1zm2.23-.28a18.909 18.909 0 0 0 10.76-.09 33.55 33.55 0 0 0 15.27-9.7 63.584 63.584 0 0 1 8.74-8.09 18.3 18.3 0 0 0-7.1 1.35c-3.93 1.61-7 4.38-10.15 7.14-2.27 2-4.68 3.85-7 5.74-.483.308-.992.576-1.52.8 3.34-2.92 6.54-5.66 9.68-8.47 4.48-4 9.35-7.17 15.66-7.4a4.227 4.227 0 0 0-1.07-.56 12.56 12.56 0 0 0-11 1.41c-3 1.8-5.32 4.36-7.71 6.83-4.26 4.4-8.44 8.8-14.56 11.04z" fill="#000"/><path d="M2.379 21.53c6.12-2.24 10.3-6.64 14.53-11 2.39-2.47 4.72-5 7.71-6.83a12.56 12.56 0 0 1 11-1.41 4.23 4.23 0 0 1 1.07.56c-6.31.23-11.18 3.39-15.66 7.4-3.14 2.81-6.34 5.55-9.68 8.47a10.428 10.428 0 0 0 1.52-.8c2.37-1.89 4.78-3.74 7-5.74 3.13-2.76 6.25-5.53 10.18-7.18a18.3 18.3 0 0 1 7.1-1.39 63.583 63.583 0 0 0-8.74 8.09 33.55 33.55 0 0 1-15.27 9.7 18.91 18.91 0 0 1-10.76.13z" fill="#C2D1A2"/></svg>