<svg xmlns="http://www.w3.org/2000/svg" fill="none" width="33" height="26" viewBox="0 0 33 26"><path d="M1.171.48c.49.71 1 1.4 1.47 2.15 2.41 4.21 5 8.25 8.91 11.31a43.76 43.76 0 0 0 10.63 6 8.31 8.31 0 0 0 7.09-.35 8.117 8.117 0 0 1 2-.57c.26-.05.77.11.82.28.051.379.02.764-.09 1.13 0 .08-.13.15-.22.2-3.39 1.72-6.65 3.76-10.52 4.31a11.77 11.77 0 0 1-10.68-3.59A41 41 0 0 1 .741 3.6a11.7 11.7 0 0 1 0-3l.43-.12zm24.75 21.75c-10.25-2.72-18.27-8.13-23.5-17.37A2.31 2.31 0 0 0 2.631 6c.76 1.67 1.46 3.38 2.37 5a35.68 35.68 0 0 0 7.54 10.1c3.99 3.61 8.61 3.32 13.38 1.13z" fill="#000"/><path d="M25.92 22.23c-4.77 2.19-9.39 2.48-13.43-1.14A35.678 35.678 0 0 1 5 11c-.91-1.62-1.61-3.33-2.37-5a2.31 2.31 0 0 1-.21-1.13c5.23 9.23 13.25 14.64 23.5 17.36z" fill="#C2D1A2"/></svg>