<svg xmlns="http://www.w3.org/2000/svg" fill="none" width="71" height="55" viewBox="0 0 71000 55000"><g clip-path="url(#a)"><path d="M45653 416a58550 58550 0 01 14452 4482 180 180 0 01 92 84c8018 11794 11978 25097 10497 40412a228 228 0 01-92 164c-6073 4460-11956 7167-17757 8962a225 225 0 01-250-85 47250 47250 0 01-3623-5897 227 227 0 01 120-315 36384 36384 0 00 5540-2637 228 228 0 00 20-378 28309 28309 0 01-1102-865 219 219 0 00-232-28c-11483 5305-24062 5305-35682 0a220 220 0 00-230 31c-355 293-727 583-1100 862a228 228 0 00 23 378 38772 38772 0 00 5539 2640 225 225 0 01 123 312 42080 42080 0 01-3627 5900 230 230 0 01-250 82C12342 52725 6460 50017 387 45558a244 244 0 01-93-166C-944 32144 1578 18730 10783 4980a207 207 0 01 95-82A58386 58386 0 01 25329 416a228 228 0 01 233 110c627 1110 1343 2532 1827 3696 5340-817 10770-817 16230 0a40784 40784 0 01 1800-3697 220 220 0 01 227-110" fill="#5865F2"/><path d="M23726 37325c-3498 0-6380-3211-6380-7156s2826-7160 6380-7160c3582 0 6437 3240 6380 7154 0 3945-2826 7156-6380 7156zm23592 0c-3498 0-6380-3211-6380-7156s2826-7160 6380-7160c3582 0 6437 3240 6380 7154 0 3945-2798 7156-6380 7156" fill="#fff"/></g><defs><clipPath id="a"><path d="M0 0h71000v55000H0" fill="#fff"/></clipPath></defs></svg>
